<?xml version="1.0" standalone="no"?>
<!DOCTYPE svg PUBLIC "-//W3C//DTD SVG 20010904//EN"
 "http://www.w3.org/TR/2001/REC-SVG-20010904/DTD/svg10.dtd">
<svg version="1.0" xmlns="http://www.w3.org/2000/svg"
 width="200.000000pt" height="200.000000pt" viewBox="0 0 200.000000 200.000000"
 preserveAspectRatio="xMidYMid meet">

<g transform="translate(0.000000,200.000000) scale(0.100000,-0.100000)"
fill="#000000" stroke="none">
<path d="M843 1886 c-350 -67 -621 -318 -714 -661 -32 -115 -32 -335 0 -450
86 -317 329 -560 646 -646 65 -18 107 -22 225 -22 118 0 160 4 225 22 324 88
570 340 652 668 23 93 23 313 0 406 -82 328 -332 584 -652 667 -103 27 -284
35 -382 16z m302 -41 c344 -60 621 -327 696 -670 7 -33 13 -112 13 -175 0 -63
-6 -142 -13 -175 -72 -330 -336 -594 -666 -666 -77 -17 -273 -17 -350 0 -343
75 -610 352 -670 696 -19 110 -19 180 0 290 82 466 526 781 990 700z"/>
<path d="M573 1273 c-18 -7 -16 -30 3 -37 20 -8 828 -8 848 0 21 8 21 30 0 38
-19 7 -833 7 -851 -1z"/>
<path d="M565 1009 c-4 -6 -3 -15 2 -20 5 -5 185 -8 439 -7 373 3 429 5 429
18 0 13 -56 15 -432 18 -305 1 -434 -1 -438 -9z"/>
<path d="M563 754 c-3 -9 0 -20 8 -25 18 -11 840 -11 858 0 8 5 11 16 8 25 -6
14 -51 16 -437 16 -386 0 -431 -2 -437 -16z"/>
</g>
</svg>
