<?xml version="1.0" standalone="no"?>
<!DOCTYPE svg PUBLIC "-//W3C//DTD SVG 20010904//EN"
 "http://www.w3.org/TR/2001/REC-SVG-20010904/DTD/svg10.dtd">
<svg version="1.0" xmlns="http://www.w3.org/2000/svg"
 width="1536.000000pt" height="1025.000000pt" viewBox="0 0 1536.000000 1025.000000"
 preserveAspectRatio="xMidYMid meet">

<g transform="translate(0.000000,1025.000000) scale(0.100000,-0.100000)"
fill="#000000" stroke="none">
<path d="M0 9290 c0 -847 2 -960 15 -960 8 0 15 5 15 10 0 19 17 10 30 -17 11
-23 14 -25 17 -10 3 9 11 17 19 17 8 0 14 4 14 9 0 13 57 31 95 31 23 0 37 7
48 23 l15 22 13 -34 12 -33 21 25 c23 28 101 44 111 23 3 -8 7 -8 11 2 3 6 14
12 25 12 10 0 19 5 19 10 0 6 7 10 15 10 8 0 15 -4 15 -10 0 -5 14 -10 30 -10
25 0 30 4 30 25 0 14 5 25 10 25 6 0 10 -12 10 -26 0 -14 4 -23 10 -19 5 3 10
19 10 35 0 36 18 49 22 16 l3 -25 42 19 43 19 0 -22 c1 -20 2 -21 14 -4 7 9
21 17 30 17 9 0 19 6 22 14 3 8 13 12 25 9 10 -3 19 -1 19 5 0 13 28 42 41 42
5 0 9 -7 9 -15 0 -19 2 -19 45 2 26 12 35 23 35 41 0 15 5 22 13 19 6 -2 11
-11 9 -21 -2 -10 4 -16 18 -16 11 0 20 5 20 10 0 6 5 10 10 10 6 0 10 -19 10
-42 l1 -43 15 34 c8 19 14 39 13 45 -5 42 11 48 31 11 10 -19 17 -22 31 -15
10 6 29 10 43 10 14 0 26 4 26 8 0 5 18 17 40 27 22 10 40 25 40 33 0 13 2 13
18 0 23 -20 76 -30 90 -16 8 8 15 8 27 -2 13 -11 19 -10 33 5 13 13 14 19 5
22 -7 3 -13 11 -13 19 0 11 18 14 80 14 64 0 80 -3 80 -15 0 -22 9 -19 42 18
29 30 31 31 38 12 6 -18 8 -18 32 8 21 23 34 27 79 27 62 1 99 21 80 44 -9 11
-8 15 4 20 15 5 45 -2 45 -11 0 -3 -8 -12 -18 -19 -14 -11 -8 -12 41 -7 57 6
57 6 57 -21 0 -16 4 -25 10 -21 6 3 10 14 10 24 0 9 6 26 14 37 14 19 15 19
29 0 11 -15 17 -16 34 -8 11 6 23 18 27 27 3 8 12 15 21 15 8 0 15 7 15 17 0
15 1 15 18 0 24 -21 88 -23 96 -2 3 8 10 15 16 15 5 0 10 -7 10 -15 0 -8 9
-15 20 -15 17 0 20 7 20 40 0 22 -4 40 -10 40 -5 0 -10 -5 -10 -12 0 -6 -2 -9
-5 -6 -8 8 6 38 17 38 6 0 21 -11 34 -25 13 -14 26 -25 29 -25 3 0 5 17 6 38
0 34 1 35 11 15 14 -28 44 -30 53 -3 3 11 13 20 21 20 8 0 28 7 44 15 17 9 30
11 30 5 0 -13 67 -13 75 0 3 6 2 10 -4 10 -7 0 -6 10 0 30 13 35 24 39 32 10
3 -11 10 -20 17 -20 7 0 14 9 17 20 7 28 23 25 23 -5 0 -29 17 -33 36 -7 13
16 15 16 25 0 14 -25 27 -22 62 15 l31 32 7 -35 6 -35 8 42 c13 72 55 98 119
73 24 -9 26 -7 26 15 0 33 60 51 102 31 15 -8 28 -10 28 -5 0 15 28 10 38 -6
5 -11 15 -13 28 -8 17 6 17 8 -5 13 l-25 6 37 36 c20 21 37 44 37 53 0 17 35
21 45 5 3 -5 13 -10 21 -10 11 0 14 12 13 50 -1 28 -7 50 -12 50 -6 0 -7 3 -4
7 14 14 47 -36 47 -72 0 -19 5 -35 10 -35 6 0 10 16 10 36 0 64 36 74 54 16 9
-29 20 -28 34 3 6 14 16 25 22 25 5 0 10 7 10 15 0 10 11 15 35 15 29 0 35 4
35 20 0 18 3 19 20 10 14 -8 26 -8 40 0 14 7 20 7 20 0 0 -15 16 -12 34 5 8 8
29 15 47 15 30 0 31 1 16 18 -10 11 -17 35 -17 57 0 38 0 38 20 20 16 -14 17
-20 8 -27 -9 -5 -4 -8 14 -8 15 0 31 -7 36 -16 10 -18 17 -13 62 46 l19 25 1
-29 c0 -23 3 -27 12 -18 7 7 20 12 30 12 15 0 17 4 9 19 -9 16 -6 21 18 31 25
10 36 9 77 -10 27 -11 51 -26 55 -32 4 -6 10 8 14 31 l7 41 49 0 c46 0 49 2
49 25 0 22 5 25 33 25 17 0 42 3 54 6 24 7 63 71 64 107 0 12 3 16 6 10 3 -9
27 -13 67 -13 63 0 96 17 96 48 0 7 9 12 20 12 13 0 20 -7 20 -20 0 -25 25
-26 70 -3 30 14 31 17 16 29 -10 7 -13 15 -7 18 5 4 12 2 16 -4 13 -21 25 -9
25 25 0 33 2 35 20 25 11 -6 20 -17 20 -25 0 -7 9 -17 20 -20 11 -3 20 -13 20
-21 0 -8 9 -14 19 -14 11 0 23 -4 26 -10 10 -15 35 -12 35 5 0 8 -9 15 -20 15
-25 0 -25 12 0 35 18 16 20 16 20 2 0 -26 19 -20 30 8 5 14 14 25 19 25 5 0
11 8 14 18 3 13 6 10 11 -10 9 -31 27 -36 46 -13 7 8 21 15 32 15 15 0 18 5
13 20 -4 12 0 26 9 36 9 8 16 22 16 30 0 8 10 14 25 14 20 0 25 -5 25 -25 0
-20 5 -25 25 -25 28 0 29 3 15 31 -9 16 -7 19 15 19 23 0 25 -3 26 -52 0 -29
3 -47 6 -40 8 19 61 15 66 -5 4 -17 5 -17 6 -1 1 10 -12 24 -31 34 l-32 17 23
18 c30 24 41 24 41 -1 0 -23 13 -26 29 -6 7 8 35 18 64 22 29 4 45 9 36 11
-13 3 -15 11 -9 43 6 32 4 40 -9 42 -13 3 -10 10 14 33 l30 30 5 -35 c5 -30 6
-32 12 -12 4 14 14 22 27 22 13 0 25 -9 31 -22 8 -21 9 -20 9 10 l1 33 80 -4
c44 -2 80 0 80 5 0 4 18 8 40 8 39 0 39 0 34 33 -3 17 -7 38 -10 45 -2 6 5 12
15 12 12 0 21 -10 25 -25 4 -14 11 -25 16 -25 5 0 12 11 16 25 6 24 24 36 24
16 0 -5 14 -4 30 2 17 6 30 17 30 24 0 18 19 16 26 -2 4 -9 19 -15 41 -15 32
0 35 2 29 23 -3 12 -6 30 -6 40 0 16 -149 17 -2995 17 l-2995 0 0 -960z m5810
895 c0 -8 -4 -15 -10 -15 -5 0 -10 7 -10 15 0 8 5 15 10 15 6 0 10 -7 10 -15z
m-91 -72 c1 -15 -5 -23 -15 -23 -12 0 -15 6 -10 23 3 12 6 31 7 42 l0 20 9
-20 c5 -11 9 -30 9 -42z m-359 -88 c0 -8 -4 -15 -10 -15 -5 0 -10 7 -10 15 0
8 5 15 10 15 6 0 10 -7 10 -15z m-90 -55 c0 -29 -4 -40 -15 -40 -11 0 -15 11
-15 40 0 29 4 40 15 40 11 0 15 -11 15 -40z m68 15 c15 -34 15 -55 0 -55 -7 0
-24 -3 -37 -7 -19 -5 -22 -3 -16 8 5 7 8 28 6 46 -2 27 1 33 17 33 10 0 24
-11 30 -25z m-353 -145 c-3 -5 -10 -10 -16 -10 -5 0 -9 5 -9 10 0 6 7 10 16
10 8 0 12 -4 9 -10z m-1785 -615 c0 -8 -4 -15 -10 -15 -5 0 -7 7 -4 15 4 8 8
15 10 15 2 0 4 -7 4 -15z m60 -5 c0 -5 -7 -10 -16 -10 -8 0 -12 5 -9 10 3 6
10 10 16 10 5 0 9 -4 9 -10z m-192 -58 c2 -7 -3 -12 -12 -12 -9 0 -16 -4 -16
-10 0 -5 -7 -10 -15 -10 -20 0 -19 9 3 31 19 19 33 20 40 1z m-376 -124 c-9
-9 -15 -9 -24 0 -9 9 -7 12 12 12 19 0 21 -3 12 -12z m-817 -218 c3 -5 -3 -10
-14 -10 -12 0 -21 5 -21 10 0 6 6 10 14 10 8 0 18 -4 21 -10z m-145 -75 c0 -8
-4 -15 -10 -15 -5 0 -10 7 -10 15 0 8 5 15 10 15 6 0 10 -7 10 -15z m-130 -25
c0 -5 -9 -10 -20 -10 -11 0 -20 5 -20 10 0 6 9 10 20 10 11 0 20 -4 20 -10z
m-715 -129 c-3 -6 -11 -8 -17 -5 -6 4 -5 9 3 15 16 10 23 4 14 -10z m65 4 c0
-8 -4 -15 -10 -15 -5 0 -10 7 -10 15 0 8 5 15 10 15 6 0 10 -7 10 -15z m-170
-55 c0 -5 -6 -10 -14 -10 -8 0 -18 5 -21 10 -3 6 3 10 14 10 12 0 21 -4 21
-10z m-45 -40 c3 -5 1 -10 -4 -10 -6 0 -11 5 -11 10 0 6 2 10 4 10 3 0 8 -4
11 -10z m-179 -77 c-11 -11 -19 6 -11 24 8 17 8 17 12 0 3 -10 2 -21 -1 -24z"/>
<path d="M6000 10225 c0 -18 5 -25 19 -25 10 0 21 -9 24 -19 6 -24 0 -31 -25
-31 -12 0 -18 -7 -18 -21 0 -16 4 -19 23 -13 38 11 57 35 57 71 0 32 1 33 45
33 31 0 47 -5 54 -17 10 -17 12 -17 26 1 32 41 22 46 -95 46 l-110 0 0 -25z"/>
<path d="M6290 10246 c0 -2 7 -9 15 -16 12 -10 15 -10 15 4 0 9 -7 16 -15 16
-8 0 -15 -2 -15 -4z"/>
<path d="M5832 10094 c-7 -8 -9 -14 -5 -14 4 0 1 -5 -7 -10 -13 -8 -12 -10 3
-10 9 0 17 6 17 14 0 8 8 16 18 18 14 3 14 5 2 10 -8 3 -21 -1 -28 -8z"/>
<path d="M5600 10020 c0 -5 5 -10 11 -10 5 0 7 5 4 10 -3 6 -8 10 -11 10 -2 0
-4 -4 -4 -10z"/>
<path d="M5665 10020 c-3 -5 -1 -10 4 -10 6 0 11 5 11 10 0 6 -2 10 -4 10 -3
0 -8 -4 -11 -10z"/>
<path d="M5470 9940 c0 -5 5 -10 11 -10 5 0 7 5 4 10 -3 6 -8 10 -11 10 -2 0
-4 -4 -4 -10z"/>
<path d="M5101 9836 c-11 -13 -11 -20 -3 -28 15 -15 24 -5 20 23 -3 21 -4 21
-17 5z"/>
<path d="M4044 9465 c-18 -14 -18 -14 9 -15 17 0 27 5 27 15 0 19 -11 19 -36
0z"/>
<path d="M4027 9434 c-13 -13 -7 -24 14 -24 11 0 19 5 17 12 -5 14 -22 21 -31
12z"/>
<path d="M3280 9175 c0 -11 11 -15 40 -15 29 0 40 -4 40 -15 0 -8 5 -15 10
-15 6 0 10 7 10 15 0 8 -4 15 -10 15 -5 0 -10 7 -10 15 0 11 -11 15 -40 15
-29 0 -40 -4 -40 -15z"/>
<path d="M1500 8641 c0 -18 18 -21 30 -6 10 13 9 15 -9 15 -11 0 -21 -4 -21
-9z"/>
<path d="M320 8370 c0 -5 9 -10 19 -10 11 0 23 5 26 10 4 6 -5 10 -19 10 -14
0 -26 -4 -26 -10z"/>
<path d="M14775 6135 c-44 -7 -179 -27 -300 -44 -130 -19 -233 -39 -253 -49
-25 -13 -36 -14 -51 -5 -14 9 -23 8 -39 -3 -13 -9 -31 -12 -46 -8 -13 3 -57 1
-98 -5 -92 -14 -710 -125 -1098 -196 -381 -70 -740 -136 -1010 -185 -118 -21
-251 -45 -295 -54 -44 -9 -228 -43 -410 -76 -181 -32 -379 -69 -440 -80 -159
-30 -251 -47 -415 -75 -154 -27 -415 -76 -540 -101 -41 -8 -111 -21 -155 -29
-44 -8 -91 -16 -105 -19 -14 -3 -79 -15 -145 -26 -66 -12 -121 -23 -123 -25
-2 -2 18 -7 45 -11 57 -8 86 -21 77 -35 -4 -7 -10 -7 -18 0 -7 6 -17 6 -26 1
-12 -8 -11 -10 5 -10 18 -1 19 -1 3 -11 -12 -7 -25 -6 -40 1 -21 10 -21 10 2
-10 14 -11 39 -28 55 -37 83 -45 199 -181 188 -221 -2 -11 3 -34 12 -52 9 -17
14 -38 11 -46 -4 -11 6 -14 47 -14 51 0 54 2 74 37 21 37 24 38 110 51 48 8
98 14 111 15 26 2 30 27 5 27 -13 0 -18 8 -18 30 0 29 5 32 75 59 41 16 79 26
85 22 5 -4 35 -18 65 -31 30 -12 68 -32 84 -43 l29 -20 134 44 134 44 -3 74
-3 74 30 9 c17 5 106 27 199 49 144 34 174 38 200 28 43 -15 266 -25 266 -11
0 6 -5 14 -11 17 -11 8 -32 56 -26 61 6 6 779 184 802 185 11 1 71 -7 133 -16
62 -10 115 -15 118 -13 3 3 -3 22 -12 42 -10 19 -16 38 -13 40 2 2 112 29 244
59 216 50 242 54 262 41 12 -8 35 -14 50 -14 25 0 872 208 882 217 3 2 -1 9
-7 15 -16 16 -15 29 1 22 13 -4 93 13 517 111 292 68 590 140 785 190 l30 8
-25 7 c-34 11 -52 10 -145 -5z"/>
<path d="M4221 5534 c-54 -11 -73 -21 -115 -61 -46 -44 -47 -44 -12 -6 65 70
32 60 -38 -12 -63 -64 -79 -96 -54 -111 7 -4 8 -3 4 4 -14 23 11 46 52 48 57
2 228 25 239 33 10 7 73 105 73 114 0 11 -80 6 -149 -9z"/>
<path d="M4413 5528 c-39 -45 -67 -99 -54 -108 7 -4 62 -10 122 -14 91 -6 115
-4 144 10 19 9 35 21 35 26 0 22 -57 88 -84 98 -16 5 -55 10 -86 10 -46 0 -60
-4 -77 -22z m-3 -78 c0 -11 -2 -20 -5 -20 -2 0 -9 9 -15 20 -9 16 -8 20 5 20
8 0 15 -9 15 -20z"/>
<path d="M5398 5483 c7 -3 16 -2 19 1 4 3 -2 6 -13 5 -11 0 -14 -3 -6 -6z"/>
<path d="M5696 5438 c21 -69 39 -92 50 -65 8 22 -23 87 -41 87 -12 0 -15 -6
-9 -22z"/>
<path d="M5816 5415 c8 -46 12 -55 25 -55 17 0 9 47 -11 71 l-20 24 6 -40z"/>
<path d="M5931 5405 c0 -11 4 -29 9 -40 l9 -20 0 20 c0 11 -4 29 -9 40 l-9 20
0 -20z"/>
<path d="M6105 5393 c3 -10 9 -30 12 -45 3 -16 9 -28 14 -28 15 0 10 58 -7 74
-20 21 -28 20 -19 -1z"/>
<path d="M6206 5358 c7 -36 20 -55 30 -45 10 10 -9 70 -24 75 -8 2 -10 -6 -6
-30z"/>
<path d="M6295 5349 c8 -36 21 -56 30 -47 10 10 -10 71 -24 76 -10 3 -11 -4
-6 -29z"/>
<path d="M6480 5336 c0 -22 20 -70 26 -63 8 8 -7 77 -17 77 -5 0 -9 -6 -9 -14z"/>
<path d="M6411 5314 c0 -11 3 -14 6 -6 3 7 2 16 -1 19 -3 4 -6 -2 -5 -13z"/>
<path d="M6845 5275 c4 -22 11 -47 16 -55 7 -10 8 -2 4 25 -4 22 -11 47 -16
55 -7 10 -8 2 -4 -25z"/>
<path d="M7011 5245 c14 -49 19 -56 19 -24 0 14 -7 34 -15 45 -13 17 -13 15
-4 -21z"/>
<path d="M7086 5258 c4 -6 10 -25 13 -42 4 -17 9 -26 12 -21 8 14 -10 75 -22
75 -6 0 -7 -5 -3 -12z"/>
<path d="M7174 5247 c3 -10 6 -30 6 -43 0 -13 5 -24 11 -24 13 0 2 60 -14 75
-7 7 -8 4 -3 -8z"/>
<path d="M7255 5220 c9 -42 13 -50 26 -50 13 0 0 52 -18 70 -13 13 -14 11 -8
-20z"/>
<path d="M7330 5234 c0 -22 22 -74 31 -74 13 0 0 51 -17 70 -8 8 -14 9 -14 4z"/>
<path d="M7421 5188 c10 -38 29 -60 29 -36 0 25 -18 68 -29 68 -6 0 -6 -12 0
-32z"/>
<path d="M7502 5178 c13 -40 28 -59 28 -36 0 26 -18 68 -29 68 -6 0 -6 -12 1
-32z"/>
<path d="M7584 5170 c8 -43 26 -64 26 -29 0 14 -7 34 -16 45 -15 18 -15 17
-10 -16z"/>
<path d="M7650 5186 c0 -15 31 -79 36 -74 9 9 -11 71 -24 76 -7 2 -12 1 -12
-2z"/>
<path d="M7734 5163 c15 -55 18 -63 27 -63 12 0 11 10 -2 49 -11 32 -34 45
-25 14z"/>
<path d="M7813 5155 c3 -11 8 -30 12 -43 4 -12 10 -20 14 -17 12 7 1 53 -17
67 -13 11 -14 10 -9 -7z"/>
<path d="M7896 5130 c8 -44 24 -63 24 -29 0 14 -7 34 -15 45 -15 18 -16 17 -9
-16z"/>
<path d="M7963 5135 c14 -54 19 -65 28 -65 13 0 0 52 -18 70 -13 13 -15 13
-10 -5z"/>
<path d="M8046 5110 c8 -44 24 -63 24 -29 0 14 -7 34 -15 45 -14 18 -14 16 -9
-16z"/>
<path d="M8477 5123 c-51 -17 -142 -90 -152 -122 -4 -13 -19 -20 -53 -24 -73
-8 -234 -36 -267 -46 -28 -9 -106 -21 -165 -25 -14 -1 -33 -6 -42 -10 -10 -5
-25 -6 -33 -3 -8 4 -17 2 -19 -2 -6 -10 -160 -36 -193 -34 -14 1 -24 -5 -28
-18 -4 -10 -10 -17 -15 -14 -4 3 -11 -2 -14 -10 -4 -11 -13 -14 -30 -9 -23 5
-86 -14 -86 -26 1 -10 48 -58 69 -69 11 -7 21 -18 21 -26 0 -7 8 -16 18 -18
14 -4 14 -5 -3 -6 -11 -1 19 -21 70 -46 50 -24 88 -44 85 -44 -3 -1 -29 6 -58
13 -28 8 -50 10 -46 5 3 -5 -3 -9 -13 -9 -15 0 -15 -2 -4 -9 20 -13 0 -36 -45
-53 -18 -6 -35 -19 -38 -27 -2 -9 -2 7 1 36 5 49 4 52 -18 57 -133 28 -167 30
-110 6 32 -13 63 -42 59 -56 -4 -15 13 -54 23 -54 5 0 9 -4 9 -8 0 -5 -32 -3
-72 5 -46 8 -74 10 -78 4 -3 -6 -16 -8 -28 -4 -13 3 -19 10 -15 17 4 7 1 6 -9
-1 -8 -7 -18 -9 -23 -5 -4 4 -6 0 -3 -8 3 -9 19 -16 39 -18 34 -3 128 -23 202
-43 20 -5 37 -13 37 -18 0 -4 -55 3 -122 15 -171 33 -168 32 -168 54 0 13 -7
20 -20 20 -11 0 -20 6 -20 13 0 9 -10 12 -31 9 -24 -4 -30 -2 -24 8 6 10 2 11
-18 6 -15 -3 -35 -2 -44 3 -30 14 -88 31 -111 31 -12 0 -22 5 -22 11 0 6 -9 9
-19 6 -17 -4 -19 -2 -10 20 12 31 5 40 -16 23 -14 -11 -17 -10 -22 8 -3 12 -9
19 -14 17 -4 -3 -5 -13 -2 -21 5 -14 -9 -15 -123 -10 -71 3 -205 5 -299 5 -93
0 -210 5 -260 11 -49 6 -124 13 -165 16 -41 2 -133 8 -205 13 -71 6 -182 13
-245 17 -63 3 -135 8 -160 12 -25 3 -75 6 -113 6 -37 1 -67 3 -67 6 0 3 -37 7
-82 8 -94 2 -218 21 -218 33 0 5 -12 4 -27 -2 -20 -7 -30 -6 -41 5 -12 12 -11
15 7 21 19 6 31 35 15 35 -21 0 -83 -24 -78 -31 9 -15 -61 -20 -125 -10 -36 6
-67 9 -69 6 -3 -2 -13 0 -22 5 -10 5 -83 17 -161 25 -79 9 -149 21 -156 27 -7
5 -16 7 -21 4 -5 -3 -87 19 -183 48 -266 82 -300 78 -224 -26 40 -55 118 -119
187 -154 42 -21 48 -28 43 -47 -7 -21 -6 -21 7 -3 14 18 19 17 127 -24 132
-50 366 -109 576 -146 173 -30 183 -32 169 -42 -5 -4 -22 -23 -37 -43 -88
-117 -92 -330 -9 -459 43 -67 80 -100 148 -132 103 -48 185 -60 410 -59 248 1
329 11 413 53 73 35 157 113 152 142 -1 10 7 28 19 41 12 13 20 31 18 42 -3
13 7 22 36 34 22 9 41 20 43 26 2 5 -15 19 -37 32 -22 12 -40 26 -40 32 0 5
36 6 88 3 l87 -6 70 70 71 71 63 -20 c131 -40 448 -74 841 -89 129 -5 278 -15
330 -24 97 -15 277 -31 475 -42 75 -5 173 -1 310 12 239 23 332 23 573 5 180
-14 183 -15 198 -40 15 -25 15 -25 10 -2 l-5 23 112 -7 c121 -7 233 3 387 36
164 34 539 155 565 182 7 7 5 7 -4 2 -10 -5 -12 -4 -7 4 4 6 12 9 17 5 11 -6
193 65 334 131 119 55 193 103 106 67 -9 -3 -12 -1 -7 7 6 9 0 10 -21 5 -32
-8 -48 -20 -48 -37 0 -7 -14 -12 -32 -11 -18 0 -30 -3 -27 -8 3 -4 0 -8 -6 -8
-6 0 -8 -5 -4 -11 5 -9 -1 -10 -19 -5 -22 5 -25 3 -20 -11 5 -12 2 -15 -9 -11
-8 4 -29 -2 -46 -12 -17 -10 -47 -22 -66 -26 -20 -3 -33 -11 -30 -16 3 -5 -2
-8 -12 -7 -11 2 -28 -2 -39 -7 -37 -20 -257 -63 -310 -62 -11 1 -23 6 -27 12
-4 7 -13 5 -25 -6 -15 -14 -38 -16 -153 -13 -74 2 -166 8 -205 13 -76 10 -136
9 -175 -2 -14 -4 -6 2 17 13 23 12 49 31 57 42 8 12 30 32 50 45 20 14 36 33
36 44 0 10 6 25 13 32 6 7 19 22 27 33 13 18 13 19 -1 8 -19 -15 -138 -23
-161 -11 -12 6 -20 3 -28 -9 -10 -16 -11 -16 -5 2 21 60 35 110 34 124 0 13
-1 14 -5 1 -3 -8 -12 -35 -21 -59 l-16 -44 -19 24 c-14 18 -17 19 -11 5 5 -14
3 -17 -6 -11 -10 5 -11 2 -7 -13 6 -19 4 -19 -31 -10 -21 5 -59 12 -86 15 -55
7 -59 10 -51 52 5 21 12 31 25 31 11 0 19 7 19 15 0 8 8 15 18 16 14 0 14 2
-3 8 -11 5 -23 7 -27 5 -4 -3 -9 0 -13 6 -12 19 -45 11 -45 -10 0 -27 3 -36
13 -32 13 4 7 -23 -18 -73 -14 -27 -23 -41 -19 -30 7 24 7 25 5 48 0 9 -6 17
-12 17 -6 0 -8 -8 -5 -17 5 -16 5 -16 -8 0 -14 18 -14 18 -20 0 -3 -10 -3 -4
0 12 2 17 7 66 10 111 l7 80 -51 -2 c-54 -3 -71 8 -91 56 -6 14 -15 32 -21 40
-5 8 -22 42 -37 74 -72 154 -222 227 -366 179z m-133 -605 c15 -27 31 -48 35
-48 3 0 12 -10 20 -22 9 -15 1 -11 -23 12 -40 38 -96 141 -96 174 1 13 8 4 19
-24 9 -25 30 -66 45 -92z m763 0 c-3 -8 -6 -5 -6 6 -1 11 2 17 5 13 3 -3 4
-12 1 -19z m-1812 -56 c-3 -3 -11 0 -18 7 -9 10 -8 11 6 5 10 -3 15 -9 12 -12z
m1485 4 c0 -2 -8 -10 -17 -17 -16 -13 -17 -12 -4 4 13 16 21 21 21 13z m-3406
-76 c54 -4 102 -13 105 -18 3 -5 34 -13 68 -17 38 -4 61 -11 57 -17 -10 -15
-72 -39 -117 -44 -23 -3 -44 -7 -48 -10 -4 -2 -9 1 -11 6 -2 7 -26 9 -71 4
-59 -6 -67 -9 -68 -28 0 -13 -8 -2 -20 28 -11 27 -29 62 -40 78 l-20 28 33 0
c18 -1 78 -5 132 -10z m3519 -117 c-7 -2 -21 -2 -30 0 -10 3 -4 5 12 5 17 0
24 -2 18 -5z m-3543 -33 c0 -5 -4 -10 -10 -10 -5 0 -10 5 -10 10 0 6 5 10 10
10 6 0 10 -4 10 -10z m1859 -24 c-9 -9 -58 -10 -59 -1 -2 13 42 24 54 14 5 -5
8 -11 5 -13z m-2379 -250 c0 -18 -17 8 -24 34 l-7 25 15 -25 c9 -14 15 -29 16
-34z"/>
<path d="M8125 5101 c3 -18 5 -37 5 -42 0 -5 5 -9 10 -9 14 0 12 19 -6 55
l-14 30 5 -34z"/>
<path d="M8196 5090 c8 -44 24 -63 24 -29 0 14 -7 34 -15 45 -15 18 -16 17 -9
-16z"/>
<path d="M8266 5085 c8 -37 24 -57 24 -29 0 11 -7 29 -15 40 -14 18 -15 17 -9
-11z"/>
<path d="M8337 5080 c7 -25 23 -37 23 -17 0 8 -6 20 -14 26 -12 10 -13 8 -9
-9z"/>
<path d="M11930 5000 c-102 -21 -284 -56 -405 -79 -418 -80 -740 -142 -837
-162 -54 -11 -136 -24 -183 -30 -47 -5 -105 -16 -128 -25 -23 -9 -50 -16 -59
-17 -24 -2 -23 -13 4 -31 32 -22 134 -20 259 5 83 16 1385 302 1649 362 l65
15 -90 -1 c-63 0 -145 -11 -275 -37z"/>
<path d="M8238 5003 c7 -3 16 -2 19 1 4 3 -2 6 -13 5 -11 0 -14 -3 -6 -6z"/>
<path d="M8178 4993 c6 -2 18 -2 25 0 6 3 1 5 -13 5 -14 0 -19 -2 -12 -5z"/>
<path d="M8123 4983 c9 -2 23 -2 30 0 6 3 -1 5 -18 5 -16 0 -22 -2 -12 -5z"/>
<path d="M8053 4973 c9 -2 25 -2 35 0 9 3 1 5 -18 5 -19 0 -27 -2 -17 -5z"/>
<path d="M4860 4959 c0 -5 5 -7 10 -4 6 3 10 8 10 11 0 2 -4 4 -10 4 -5 0 -10
-5 -10 -11z"/>
<path d="M7988 4963 c6 -2 18 -2 25 0 6 3 1 5 -13 5 -14 0 -19 -2 -12 -5z"/>
<path d="M7933 4953 c9 -2 23 -2 30 0 6 3 -1 5 -18 5 -16 0 -22 -2 -12 -5z"/>
<path d="M7815 4940 c-42 -11 -1 -11 50 -1 34 7 35 9 10 9 -16 0 -43 -4 -60
-8z"/>
<path d="M6500 4926 c-13 -16 -7 -46 9 -46 12 0 22 43 12 53 -4 4 -14 1 -21
-7z"/>
<path d="M7733 4923 c9 -2 25 -2 35 0 9 3 1 5 -18 5 -19 0 -27 -2 -17 -5z"/>
<path d="M7673 4913 c9 -2 23 -2 30 0 6 3 -1 5 -18 5 -16 0 -22 -2 -12 -5z"/>
<path d="M7613 4903 c9 -2 23 -2 30 0 6 3 -1 5 -18 5 -16 0 -22 -2 -12 -5z"/>
<path d="M7543 4893 c9 -2 23 -2 30 0 6 3 -1 5 -18 5 -16 0 -22 -2 -12 -5z"/>
<path d="M9460 4830 c0 -5 5 -10 10 -10 6 0 10 5 10 10 0 6 -4 10 -10 10 -5 0
-10 -4 -10 -10z"/>
<path d="M10072 4805 c0 -16 2 -22 5 -12 2 9 2 23 0 30 -3 6 -5 -1 -5 -18z"/>
<path d="M4790 4750 c0 -5 5 -10 11 -10 5 0 7 5 4 10 -3 6 -8 10 -11 10 -2 0
-4 -4 -4 -10z"/>
<path d="M6156 4738 c-10 -14 -12 -26 -6 -32 11 -11 40 10 40 30 0 23 -18 25
-34 2z"/>
<path d="M6608 4735 c-6 -14 -8 -28 -5 -31 10 -11 37 17 37 37 0 27 -18 23
-32 -6z"/>
<path d="M6704 4725 c-4 -14 -4 -29 0 -32 9 -10 36 18 36 38 0 28 -29 23 -36
-6z"/>
<path d="M9560 4664 c0 -17 17 -36 24 -26 3 5 -1 15 -9 22 -8 7 -15 9 -15 4z"/>
<path d="M10719 4584 c-29 -15 -57 -44 -43 -44 16 0 74 39 74 50 0 5 -1 10 -2
9 -2 -1 -15 -7 -29 -15z"/>
<path d="M2139 4419 c-12 -7 -11 -9 1 -9 12 -1 12 -3 -2 -13 -15 -12 -13 -17
23 -50 24 -23 39 -46 39 -61 0 -39 30 -80 72 -100 33 -15 53 -17 116 -12 93 8
118 9 202 3 36 -3 70 -1 77 5 8 7 19 5 35 -6 30 -21 45 -20 75 4 30 23 75 26
96 6 12 -13 16 -9 27 25 7 21 19 39 26 39 17 0 29 39 16 52 -6 6 -17 6 -31 -1
-18 -10 -21 -9 -21 9 0 11 -4 20 -9 20 -5 0 -7 -10 -3 -22 l5 -22 -35 22 c-25
16 -45 21 -69 17 -19 -3 -27 -2 -20 1 9 4 -6 12 -39 21 -30 7 -57 18 -61 24
-7 12 -58 26 -154 41 -87 14 -348 19 -366 7z"/>
<path d="M3053 4303 c-38 -4 -43 -7 -43 -29 0 -17 5 -24 20 -24 17 0 29 -15
45 -56 0 -1 10 -4 21 -8 17 -5 24 -1 32 21 22 60 23 82 3 93 -11 5 -23 9 -28
8 -4 -1 -27 -3 -50 -5z"/>
<path d="M3299 4181 c-22 -18 -22 -20 -7 -57 8 -22 20 -38 27 -36 7 1 19 -2
25 -8 7 -5 16 -7 20 -3 4 4 9 -3 13 -15 3 -15 13 -22 29 -22 13 0 24 -5 24
-11 0 -6 -9 -9 -20 -6 -11 3 -23 1 -26 -4 -3 -5 -1 -9 4 -9 11 0 31 -96 35
-165 2 -41 6 -52 25 -61 13 -7 33 -27 44 -45 11 -19 23 -36 27 -39 6 -5 7 -16
3 -46 -1 -5 -11 -20 -23 -32 -17 -19 -18 -23 -5 -28 9 -3 16 -12 16 -18 0 -7
17 -13 40 -14 23 -2 52 -7 66 -12 14 -6 41 -10 60 -10 21 0 50 -10 72 -25 32
-22 43 -24 102 -19 66 5 110 -1 210 -31 30 -9 84 -18 120 -20 36 -2 85 -11
108 -19 30 -11 49 -13 61 -6 10 5 34 7 54 3 30 -5 38 -2 43 13 3 11 10 27 15
36 13 26 11 59 -6 92 -8 15 -15 34 -15 40 0 7 -11 23 -25 36 -14 13 -25 28
-25 33 0 5 -16 24 -35 43 -28 26 -35 40 -35 71 -1 25 -10 52 -28 78 -28 39
-28 40 -87 36 -85 -4 -103 -3 -170 9 -33 6 -111 13 -173 15 -63 3 -134 12
-158 20 -25 8 -51 15 -59 15 -26 0 -85 33 -91 52 -6 20 -19 24 -29 7 -4 -6
-17 4 -31 25 -21 31 -23 40 -15 78 6 23 8 44 7 46 -4 4 -142 31 -162 32 -1 0
-12 -8 -25 -19z m193 -183 c-9 -9 -15 -9 -24 0 -9 9 -7 12 12 12 19 0 21 -3
12 -12z"/>
<path d="M3207 3774 c7 -3 9 -12 6 -20 -6 -16 13 -19 23 -3 7 11 -13 29 -31
28 -5 0 -5 -3 2 -5z"/>
<path d="M2769 3700 c-30 -29 -30 -30 -12 -57 10 -15 21 -31 26 -34 4 -3 5
-13 2 -22 -5 -11 -2 -15 12 -12 10 2 21 4 25 4 4 1 5 8 2 16 -4 9 0 15 9 15 8
0 17 -9 20 -20 4 -15 12 -18 36 -15 17 2 33 0 36 -4 14 -23 150 2 141 25 -3 8
1 14 9 14 8 0 12 -6 9 -13 -3 -9 7 -12 35 -12 22 0 43 4 47 8 4 4 12 0 18 -8
9 -13 21 -14 66 -7 53 8 54 9 28 20 -15 6 -32 20 -38 32 -6 11 -17 20 -25 20
-18 0 -19 12 -3 28 7 7 8 12 4 12 -4 0 -16 -10 -26 -22 l-18 -23 -26 24 c-14
14 -26 20 -26 14 0 -6 -11 -8 -25 -5 -14 2 -31 0 -38 -5 -14 -12 -97 -5 -97 8
0 5 -9 9 -21 9 -11 0 -29 10 -40 23 -16 19 -18 20 -19 4 0 -17 -2 -17 -22 -3
-33 23 -56 20 -89 -14z"/>
<path d="M2610 3703 c0 -7 7 -13 15 -13 8 0 15 6 15 13 0 8 -7 14 -15 14 -8 0
-15 -6 -15 -14z"/>
<path d="M270 3674 c-28 -9 -64 -13 -95 -10 -60 7 -95 -8 -45 -19 36 -8 31
-17 -17 -33 -30 -10 -33 -9 -45 19 -15 33 -35 37 -54 12 -11 -14 -13 -93 -14
-372 l0 -354 34 6 c19 3 37 2 41 -1 4 -4 43 -11 88 -17 102 -12 267 5 347 37
66 26 208 33 249 12 14 -8 36 -14 47 -14 12 0 24 -7 28 -15 4 -11 14 -13 38
-8 42 7 42 8 30 30 -7 13 -6 22 4 31 9 8 14 9 14 2 0 -6 5 -8 10 -5 6 3 10 24
10 45 0 44 8 70 22 70 5 0 21 9 35 20 14 11 38 20 54 20 33 0 81 -19 92 -37 9
-15 75 -17 111 -4 17 7 26 7 29 -2 3 -8 13 -4 29 11 13 12 31 22 39 22 19 1
63 39 80 70 7 14 12 37 10 52 -2 19 3 28 19 33 24 8 80 60 80 75 0 11 9 13 63
10 40 -2 76 27 77 63 0 13 9 17 38 17 53 0 85 25 80 61 -3 16 0 30 6 32 18 6
-3 23 -44 37 -49 16 -74 6 -76 -31 -1 -13 -2 -30 -3 -36 -2 -18 -41 -16 -41 2
0 8 8 15 18 15 12 0 17 9 19 35 2 38 -11 47 -59 41 -16 -2 -28 1 -28 5 0 5
-16 9 -35 9 -21 0 -35 5 -35 13 0 9 -3 8 -9 -2 -6 -9 -21 -12 -44 -9 -20 2
-34 1 -31 -3 4 -8 -46 -19 -87 -19 -22 0 -29 -5 -29 -19 0 -22 -35 -32 -69
-19 -42 15 -86 21 -183 22 -78 1 -100 5 -116 20 -13 11 -26 15 -34 10 -17 -11
-39 -11 -59 -2 -8 4 -33 9 -55 12 -21 2 -47 7 -56 11 -9 4 -25 2 -35 -3 -12
-7 -25 -7 -35 -1 -12 7 -20 5 -27 -8 -10 -17 -10 -17 -11 0 0 20 -10 21 -45 5
-20 -9 -28 -9 -34 0 -3 6 -23 18 -43 26 -28 12 -37 13 -41 3 -3 -9 -8 -9 -21
2 -14 12 -22 12 -36 3 -15 -9 -19 -8 -24 5 -4 11 -14 13 -31 9 -18 -5 -27 -2
-31 9 -7 18 -6 18 -64 -1z m1375 -105 c10 -15 -1 -23 -20 -15 -9 3 -13 10 -10
16 8 13 22 13 30 -1z"/>
<path d="M2661 3674 c0 -11 3 -14 6 -6 3 7 2 16 -1 19 -3 4 -6 -2 -5 -13z"/>
<path d="M2717 3604 c-9 -10 4 -34 19 -34 8 0 14 4 14 9 0 12 -26 32 -33 25z"/>
<path d="M14930 2963 c0 -10 4 -14 8 -8 4 6 11 13 16 18 5 4 2 7 -7 7 -10 0
-17 -8 -17 -17z"/>
<path d="M7810 2959 c0 -6 9 -9 19 -6 14 3 18 1 14 -10 -4 -11 -16 -14 -42
-11 -20 3 -51 1 -70 -4 -23 -7 -48 -6 -76 2 -45 13 -87 1 -82 -22 1 -7 -6 -14
-16 -16 -15 -3 -18 0 -12 16 4 15 0 24 -14 32 -22 11 -71 4 -71 -11 0 -5 -4
-9 -10 -9 -5 0 -10 7 -10 16 0 12 -9 14 -42 12 -24 -2 -42 -7 -40 -12 6 -18
-81 -39 -140 -32 -44 4 -60 2 -72 -10 -14 -14 -18 -14 -31 0 -8 8 -15 21 -15
30 0 8 -5 18 -10 21 -17 11 -50 -5 -50 -24 0 -16 -6 -17 -47 -10 -29 4 -53 3
-60 -3 -9 -7 -18 -6 -28 2 -13 11 -18 10 -28 -4 -19 -25 -70 -35 -163 -30 -58
3 -84 1 -79 -6 4 -6 -9 -10 -34 -10 -23 0 -41 5 -41 10 0 16 -76 12 -90 -5
-17 -20 -47 -19 -59 3 -6 9 -11 12 -11 6 0 -7 -16 -15 -36 -19 -20 -3 -43 -13
-51 -21 -19 -19 -38 -7 -21 14 12 14 8 15 -32 9 -25 -4 -93 -10 -152 -14 -60
-3 -108 -10 -108 -14 0 -5 10 -9 23 -10 20 -1 19 -2 -5 -9 -15 -4 -43 -5 -62
0 -23 5 -36 4 -39 -3 -2 -8 -29 -8 -96 2 -51 7 -95 10 -98 7 -4 -3 3 -6 15 -6
12 0 22 -4 22 -10 0 -14 -43 -13 -76 2 -22 10 -28 10 -39 -5 -12 -17 -45 -24
-45 -9 0 11 -126 5 -150 -8 -14 -8 -56 -11 -114 -9 -89 4 -91 3 -89 -19 3 -27
-7 -28 -33 -4 -19 18 -94 27 -94 11 0 -4 -7 -6 -15 -3 -8 4 -36 3 -61 -1 -33
-5 -48 -12 -51 -25 -5 -19 -33 -36 -33 -20 0 5 -9 12 -21 15 -15 5 -25 1 -36
-15 l-15 -21 -24 22 c-21 20 -24 20 -30 5 -5 -14 -14 -16 -40 -11 -19 3 -43 1
-54 -5 -13 -7 -20 -7 -20 0 0 13 -77 13 -85 0 -11 -17 -42 -11 -58 13 -13 18
-16 19 -16 5 -1 -13 -9 -18 -30 -18 -16 0 -36 -6 -44 -14 -8 -9 -45 -17 -93
-20 -117 -9 -148 -9 -273 -1 -90 5 -115 4 -122 -7 -8 -11 -10 -11 -18 1 -6 9
-11 10 -15 2 -12 -18 -24 -13 -34 17 -7 17 -11 21 -11 10 -1 -19 -26 -24 -36
-8 -3 6 -1 10 5 10 6 0 8 5 5 10 -3 6 -17 10 -31 10 -14 0 -32 7 -40 15 -22
21 -62 19 -76 -5 -15 -24 -43 -26 -52 -5 -6 18 -29 19 -55 3 -11 -6 -26 -8
-37 -3 -11 5 -22 8 -26 7 -3 -1 -12 5 -18 13 -16 19 -40 19 -40 0 0 -11 -10
-15 -37 -14 -34 1 -35 2 -13 9 l25 8 -27 1 c-16 1 -28 6 -28 13 0 6 -7 4 -18
-5 -10 -10 -28 -17 -40 -17 -12 0 -22 -6 -22 -13 0 -16 -61 -10 -72 7 -5 8 -8
7 -8 -1 0 -7 -9 -13 -21 -13 -13 0 -18 4 -13 13 4 6 4 9 0 5 -4 -3 -27 0 -49
9 -59 21 -87 23 -87 7 0 -8 -4 -14 -10 -14 -5 0 -10 -7 -10 -15 0 -8 -4 -15
-9 -15 -13 0 -20 -25 -11 -39 6 -10 12 -10 29 -2 17 10 21 9 21 -4 0 -8 8 -15
18 -15 25 0 62 -41 62 -70 0 -13 7 -31 15 -40 14 -15 14 -25 4 -64 -10 -42
-10 -48 7 -61 11 -8 27 -15 37 -15 9 0 17 -5 17 -11 0 -14 41 -48 58 -49 6 0
12 -7 12 -15 0 -9 6 -12 15 -9 9 4 17 -1 20 -10 3 -9 8 -24 11 -33 4 -10 8
-27 9 -37 1 -10 10 -25 19 -32 10 -7 15 -17 12 -22 -3 -6 2 -8 14 -5 13 3 31
-6 55 -28 29 -28 35 -40 35 -76 0 -23 4 -44 8 -47 5 -3 15 -30 22 -62 8 -31
19 -58 26 -61 7 -3 18 -20 24 -39 6 -19 16 -34 21 -34 5 0 9 -18 9 -40 0 -22
5 -41 10 -41 6 -1 15 -2 21 -3 7 0 15 -11 20 -23 7 -19 3 -26 -16 -39 -29 -19
-31 -29 -9 -52 14 -13 15 -29 10 -94 -5 -60 -4 -78 6 -78 9 0 13 -16 14 -45 1
-25 6 -51 12 -57 7 -7 12 -22 12 -35 0 -23 25 -33 32 -13 2 5 19 3 43 -6 l40
-15 -42 6 c-26 3 -43 1 -43 -5 0 -5 6 -10 14 -10 7 0 21 -11 30 -25 14 -21 21
-24 57 -19 40 6 99 -10 99 -27 0 -5 5 -9 10 -9 6 0 10 6 10 14 0 13 4 13 26 1
18 -9 34 -11 49 -5 13 5 26 6 30 2 3 -3 3 2 -1 12 -6 16 -4 16 12 6 17 -10 24
-8 52 16 18 16 32 34 32 41 0 7 12 16 28 19 30 7 72 41 72 59 0 7 9 20 21 31
16 14 24 16 38 7 30 -19 291 15 291 38 0 5 -4 9 -10 9 -15 0 -12 26 5 40 13
10 15 9 15 -9 0 -11 5 -21 11 -21 8 0 7 -5 -1 -15 -20 -25 -1 -31 33 -12 27
16 91 30 137 30 63 0 76 -4 85 -25 8 -19 18 -23 53 -23 23 0 46 -6 50 -12 8
-13 0 -100 -13 -139 -5 -17 -2 -23 18 -28 14 -3 38 -18 54 -33 40 -39 66 -58
86 -66 9 -3 17 -11 17 -16 0 -5 14 -14 32 -20 30 -11 30 -12 13 -25 -18 -13
-17 -15 18 -48 40 -39 45 -48 22 -48 -18 0 -21 -60 -5 -91 8 -14 6 -25 -6 -44
-15 -23 -15 -25 -1 -25 9 0 21 9 27 20 6 11 17 20 24 20 11 0 13 -13 9 -58 -6
-65 2 -77 65 -99 30 -10 40 -10 58 2 12 8 38 13 58 11 34 -2 41 4 36 29 -1 6
4 5 11 -2 8 -8 18 -9 31 -2 19 10 22 7 31 -36 3 -15 5 -13 6 8 1 20 6 27 21
27 17 0 20 -7 20 -40 0 -33 -3 -40 -20 -40 -25 0 -26 -27 -1 -35 22 -7 46 -58
38 -80 -8 -19 -36 -8 -47 19 -8 19 -9 18 -9 -7 -1 -34 -22 -57 -51 -57 -11 0
-30 -9 -41 -19 -23 -22 -72 -19 -121 6 -31 15 -34 23 -15 42 10 10 8 12 -8 9
-19 -3 -30 -35 -37 -110 -3 -25 -13 -22 -26 7 -10 21 -18 25 -57 25 -38 0 -45
-3 -45 -20 0 -18 -7 -20 -54 -20 l-55 0 -4 43 c-2 23 -4 6 -5 -40 -1 -54 -6
-83 -14 -86 -9 -3 -7 -10 7 -21 19 -15 19 -17 3 -30 -24 -18 -26 -106 -2 -106
23 0 13 -34 -12 -38 -17 -2 -24 -14 -33 -59 -6 -30 -8 -59 -5 -64 6 -10 915
-12 952 -3 12 4 22 12 22 19 0 7 -10 13 -22 14 -13 0 -43 3 -66 7 -41 6 -44 8
-39 32 4 18 -1 32 -15 44 -19 16 -19 56 0 44 5 -3 8 5 8 17 -1 17 6 23 27 25
15 2 27 -1 27 -7 0 -6 7 -11 15 -11 10 0 15 11 15 35 0 38 19 48 27 15 6 -23
23 -27 23 -5 0 8 8 15 18 15 10 0 29 13 43 29 14 16 36 31 50 33 13 2 23 9 21
16 -1 6 5 12 13 12 8 0 15 6 15 14 0 9 7 12 20 9 15 -4 21 1 25 23 16 71 21
76 82 87 25 5 33 2 36 -11 3 -12 5 -11 6 6 1 16 -5 22 -20 22 -16 0 -19 4 -14
18 4 9 12 36 18 59 14 57 67 75 67 22 0 -10 6 -19 14 -19 9 0 12 8 9 24 -6 30
20 41 91 38 27 -1 54 2 61 8 9 8 15 8 20 0 3 -5 18 -10 32 -10 15 0 37 -10 49
-21 16 -15 29 -19 41 -14 21 9 96 6 103 -3 3 -4 14 -7 25 -7 14 0 20 -7 20
-24 0 -27 34 -46 48 -27 6 7 7 5 4 -6 -7 -21 15 -40 36 -32 10 3 27 -4 42 -19
29 -26 123 -43 172 -31 19 5 25 2 30 -15 3 -11 7 -21 10 -21 11 0 33 30 33 44
0 9 5 16 10 16 6 0 10 -9 10 -20 0 -11 5 -20 10 -20 6 0 10 9 10 19 0 11 9 23
21 26 17 6 19 9 8 16 -18 11 -2 28 31 31 20 2 25 -1 24 -19 0 -13 3 -23 8 -23
4 0 8 19 8 43 l0 42 53 13 c29 6 84 12 123 12 l70 0 19 -42 c20 -45 37 -178
25 -191 -4 -5 -5 -28 -2 -53 5 -51 -13 -104 -37 -104 -24 0 -47 -67 -47 -135
l1 -60 3898 -3 3897 -2 0 1465 c0 1016 -3 1465 -10 1465 -24 0 -70 -31 -63
-43 5 -8 2 -8 -9 1 -9 7 -19 28 -22 47 -7 34 -30 48 -38 23 -3 -8 -21 -11 -51
-9 -29 1 -47 -2 -47 -8 0 -6 18 -11 40 -11 23 0 40 -5 40 -11 0 -12 -237 -8
-257 4 -6 4 -16 0 -23 -8 -11 -14 -15 -14 -31 1 -11 9 -25 14 -35 10 -16 -6
-15 -8 2 -21 18 -14 17 -14 -11 -14 -16 0 -54 4 -83 8 -50 7 -77 0 -50 -13 7
-3 -5 -3 -27 0 -22 3 -43 10 -46 16 -4 7 -9 6 -13 -1 -9 -14 -86 -15 -86 0 0
5 -5 7 -11 3 -8 -4 -7 -9 2 -15 24 -15 -32 -25 -129 -25 -69 1 -91 -2 -87 -11
2 -7 -5 -17 -15 -23 -27 -14 -62 4 -53 27 5 13 2 15 -11 10 -10 -4 -24 -7 -32
-7 -8 0 -14 -6 -14 -14 0 -7 -9 -16 -21 -19 -15 -4 -23 0 -26 14 -6 22 -23 26
-23 5 0 -26 -20 -28 -29 -4 -9 21 -10 21 -11 3 -1 -19 -1 -19 -11 -2 -10 17
-12 17 -29 2 -11 -10 -20 -13 -24 -6 -5 7 -15 7 -32 1 -14 -6 -34 -10 -45 -10
-17 0 -19 4 -13 22 6 19 5 21 -8 11 -8 -7 -24 -10 -36 -6 -21 5 -22 4 -11 -21
7 -14 17 -26 22 -26 5 0 4 -6 -2 -14 -9 -10 -8 -16 4 -26 11 -9 12 -16 5 -25
-8 -10 -6 -15 7 -18 16 -4 16 -5 -2 -6 -15 -1 -11 -6 15 -17 27 -12 31 -17 20
-24 -16 -10 -7 -15 35 -22 28 -4 34 -48 6 -48 -11 0 -23 -4 -26 -10 -4 -6 23
-7 74 -3 75 6 82 4 105 -18 14 -13 26 -30 26 -36 0 -7 11 -13 25 -13 17 0 29
-9 40 -30 8 -16 15 -34 15 -40 0 -12 -40 -13 -60 0 -9 6 -17 5 -22 -3 -5 -8
-20 -5 -53 11 -55 26 -53 26 -51 5 0 -10 -7 -19 -16 -21 -13 -3 -18 3 -18 22
0 14 -4 28 -10 31 -6 4 -10 -8 -10 -29 0 -28 -3 -34 -16 -29 -10 4 -17 -1 -21
-16 -9 -34 -18 -24 -18 19 -1 28 3 40 13 40 11 0 13 8 8 31 -3 17 -6 35 -6 40
0 5 -4 9 -9 9 -5 0 -11 -18 -15 -40 -6 -41 -26 -56 -26 -19 0 11 -5 29 -11 40
-9 18 -13 19 -27 7 -27 -21 -66 -17 -70 8 -3 18 -11 22 -45 23 -35 2 -78 6
-96 10 -2 1 1 7 7 14 9 10 6 18 -10 31 -17 15 -22 16 -29 5 -5 -8 -9 -10 -9
-5 0 6 -5 5 -12 -2 -8 -8 -8 -15 2 -26 10 -13 9 -17 -5 -22 -9 -4 -21 -2 -28
5 -6 6 -21 11 -34 11 -17 0 -23 6 -23 23 -1 22 -1 22 -16 2 -14 -19 -16 -19
-28 -2 -7 9 -18 17 -25 17 -6 0 -11 9 -11 19 0 10 -7 21 -15 25 -11 4 -15 -1
-15 -19 0 -41 -33 -32 -54 15 -10 22 -22 40 -27 40 -5 0 -8 10 -6 22 1 17 -4
24 -20 26 -13 2 -23 10 -23 18 0 8 -7 14 -15 14 -8 0 -15 -4 -15 -10 0 -14
-75 -33 -104 -26 -31 8 -34 22 -5 31 16 5 18 9 8 21 -10 12 -8 17 6 28 18 13
18 14 -2 20 -11 4 -31 2 -44 -3 -21 -8 -22 -10 -6 -16 9 -4 17 -11 17 -15 0
-12 -28 -20 -45 -14 -12 5 -13 9 -4 20 17 21 -18 46 -44 32 -26 -13 -70 -1
-63 17 4 12 2 13 -14 2 -11 -6 -20 -15 -20 -19 0 -5 -11 -8 -25 -8 -14 0 -25
-5 -25 -11 0 -8 -4 -8 -14 0 -11 9 -25 10 -53 2 -54 -15 -170 -14 -175 1 -3 8
-19 -3 -40 -26 -27 -29 -41 -37 -57 -33 -17 4 -21 1 -21 -19 0 -27 -21 -31
-58 -10 l-24 13 31 13 c17 7 28 16 25 21 -3 5 -10 6 -16 3 -8 -5 -9 3 -5 24 5
23 2 32 -11 37 -9 3 -18 1 -20 -4 -6 -19 -22 -12 -22 10 0 15 -5 20 -22 17
-12 -2 -23 -10 -25 -18 -4 -12 -3 -12 5 -2 7 11 10 11 15 -2 10 -26 -64 -22
-83 4 -16 22 -46 27 -52 9 -3 -9 -10 -9 -26 0 -28 15 -80 -4 -80 -29 0 -8 -3
-25 -7 -37 -5 -15 -3 -23 4 -23 6 0 11 -7 11 -15 0 -8 -4 -15 -10 -15 -5 0
-10 7 -10 15 0 8 -8 15 -17 15 -11 0 -24 15 -35 40 -14 34 -21 40 -48 40 -17
0 -33 -6 -36 -14 -3 -8 -12 -12 -20 -9 -19 7 -18 23 1 23 8 0 15 5 15 10 0 6
-18 10 -40 10 -34 0 -40 -3 -40 -21 0 -18 -2 -19 -15 -5 -8 8 -15 19 -15 24 0
17 -29 22 -43 8 -18 -18 -95 -23 -131 -8 -24 11 -30 10 -42 -5 -7 -10 -14 -22
-14 -26 0 -15 21 -47 31 -47 15 0 35 -22 43 -48 7 -22 26 -31 26 -12 0 19 22
10 27 -11 4 -12 17 -22 35 -26 27 -5 28 -8 22 -37 -3 -17 -11 -37 -17 -44 -7
-9 -7 -16 1 -24 9 -9 12 -9 12 1 0 7 6 19 14 27 16 16 18 13 31 -53 5 -23 2
-32 -8 -35 -23 -5 -2 -48 23 -48 11 0 20 5 20 10 0 12 10 13 29 1 13 -8 11
-17 -9 -55 -14 -29 -30 -46 -41 -46 -10 0 -21 -4 -24 -10 -3 -5 -1 -10 6 -10
8 0 8 -4 -1 -15 -9 -11 -22 -14 -41 -10 -15 3 -30 1 -34 -4 -3 -6 0 -11 7 -12
7 0 4 -4 -7 -9 -26 -11 -125 -12 -125 -1 0 4 -32 11 -70 15 -39 3 -74 7 -78 7
-4 1 -26 1 -49 0 -40 -1 -43 -3 -44 -28 -1 -23 -3 -19 -13 16 l-11 44 -14 -29
c-12 -26 -14 -27 -23 -10 -7 13 -13 15 -17 7 -6 -9 -15 -9 -35 -2 -22 9 -25
15 -20 36 5 19 2 25 -10 25 -9 0 -16 -6 -15 -12 4 -32 -1 -39 -20 -29 -13 7
-24 6 -37 -4 -17 -12 -22 -11 -39 5 -53 50 -62 55 -102 56 -24 0 -79 2 -123 2
-68 2 -80 5 -80 19 0 16 -1 15 -13 -1 -14 -19 -47 -13 -47 10 0 8 -4 14 -10
14 -5 0 -10 -5 -10 -10 0 -6 -16 -8 -42 -4 -47 7 -75 23 -42 25 13 0 9 4 -11
10 -35 11 -91 3 -122 -17 -21 -13 -23 -13 -23 4 0 17 -62 50 -84 44 -4 -2 -18
0 -30 4 -21 7 -21 7 -1 16 15 6 12 7 -10 2 -123 -24 -361 -32 -349 -11 6 8 3
8 -9 -1 -18 -15 -41 -7 -30 11 4 7 -2 5 -12 -3 -11 -9 -16 -10 -11 -2 7 12 -4
16 -31 13 -7 -1 -13 5 -13 14 0 9 9 15 26 15 l25 0 -27 25 c-14 13 -35 27 -45
30 -22 7 -25 21 -6 28 16 7 -13 29 -30 22 -12 -4 -27 11 -28 30 -1 6 -5 23 -9
38 -7 23 -13 28 -32 24 -14 -2 -21 0 -17 6 3 5 -12 8 -39 6 -38 -3 -44 -2 -40
13 4 15 -4 17 -67 13 -67 -5 -72 -4 -81 17 l-9 23 0 -22 c-1 -28 -10 -28 -50
-5 -26 14 -34 15 -52 4 -15 -9 -25 -10 -32 -3 -13 13 -70 2 -80 -16 -11 -18
-27 -17 -27 2 0 18 -12 19 -27 4 -12 -12 -53 -3 -53 12 0 5 -18 9 -40 9 -25 0
-40 5 -40 13 0 9 -2 9 -8 -1 -12 -19 -89 -12 -108 10 -19 21 -44 24 -44 6 0
-7 -6 -3 -14 8 -13 18 -27 20 -120 22 -93 3 -106 1 -106 -14 0 -12 -5 -14 -17
-9 -10 4 -31 10 -48 13 -16 2 -35 9 -42 14 -6 5 -20 9 -30 8 -33 -4 -43 0 -43
15 0 8 -9 15 -20 15 -11 0 -20 -7 -20 -16 0 -16 3 -15 -192 -15 -31 0 -40 -5
-52 -27 l-15 -27 -1 25 0 25 -173 0 c-108 -1 -182 -5 -199 -12 -21 -9 -28 -9
-31 0 -3 9 -7 9 -19 -1 -14 -11 -18 -8 -29 18 -10 21 -21 30 -36 30 -13 0 -23
-5 -23 -11z m287 -36 c-20 -2 -52 -2 -70 0 -17 2 0 4 38 4 39 0 53 -2 32 -4z
m7100 -39 c-3 -3 -12 -4 -19 -1 -8 3 -5 6 6 6 11 1 17 -2 13 -5z m-2762 -44
c3 -5 1 -10 -4 -10 -6 0 -11 5 -11 10 0 6 2 10 4 10 3 0 8 -4 11 -10z m-385
-20 c0 -5 -4 -10 -10 -10 -5 0 -10 5 -10 10 0 6 5 10 10 10 6 0 10 -4 10 -10z
m210 -16 c0 -19 7 -18 33 7 15 14 29 18 47 14 14 -3 41 -10 60 -14 19 -5 27
-9 18 -10 -25 -1 -23 -31 2 -31 11 0 20 -7 20 -15 0 -8 -4 -15 -10 -15 -5 0
-10 -7 -10 -15 0 -8 -4 -15 -10 -15 -5 0 -10 6 -10 14 0 7 -7 19 -16 27 -13
10 -17 10 -24 -2 -7 -10 -5 -15 6 -17 12 -3 15 -11 10 -33 -3 -16 -9 -42 -12
-59 -6 -26 -4 -30 15 -30 14 0 21 -6 21 -20 0 -17 -6 -19 -51 -17 -35 1 -53
-3 -60 -13 -7 -13 -10 -13 -18 -1 -5 7 -6 22 -4 32 4 14 -6 24 -41 41 -43 20
-46 25 -46 60 0 27 4 38 15 38 11 0 15 11 15 40 0 29 4 40 15 40 8 0 15 5 15
11 0 5 5 7 10 4 6 -3 10 -13 10 -21z m-480 2 c0 -2 -9 -6 -20 -9 -11 -3 -20
-1 -20 4 0 5 9 9 20 9 11 0 20 -2 20 -4z m-6610 -60 c0 -2 -7 -9 -15 -16 -13
-11 -14 -10 -9 4 5 14 24 23 24 12z m-1496 -42 c3 -8 2 -12 -4 -9 -6 3 -10 10
-10 16 0 14 7 11 14 -7z m9653 -46 c-3 -8 -6 -5 -6 6 -1 11 2 17 5 13 3 -3 4
-12 1 -19z m-8527 2 c0 -5 -5 -10 -11 -10 -5 0 -7 5 -4 10 3 6 8 10 11 10 2 0
4 -4 4 -10z m9307 -46 c-3 -3 -12 -4 -19 -1 -8 3 -5 6 6 6 11 1 17 -2 13 -5z
m-1867 -14 c0 -5 -7 -10 -16 -10 -8 0 -12 5 -9 10 3 6 10 10 16 10 5 0 9 -4 9
-10z m-323 -22 c-3 -8 -6 -5 -6 6 -1 11 2 17 5 13 3 -3 4 -12 1 -19z m1963
-118 c0 -5 -4 -10 -10 -10 -5 0 -10 5 -10 10 0 6 5 10 10 10 6 0 10 -4 10 -10z
m-9403 -776 c-3 -3 -12 -4 -19 -1 -8 3 -5 6 6 6 11 1 17 -2 13 -5z m58 -10
c14 -9 25 -21 25 -27 0 -5 8 -16 18 -23 15 -12 14 -13 -10 -14 -16 0 -28 -5
-28 -11 0 -6 -12 -9 -27 -7 -20 2 -28 8 -27 21 1 12 -5 17 -22 17 -13 0 -24 5
-24 10 0 6 9 10 20 10 11 0 25 9 32 20 15 24 13 24 43 4z m35 -134 c0 -5 -4
-10 -9 -10 -6 0 -13 5 -16 10 -3 6 1 10 9 10 9 0 16 -4 16 -10z m1190 -796 c0
-8 -4 -12 -10 -9 -5 3 -10 10 -10 16 0 5 5 9 10 9 6 0 10 -7 10 -16z m-80 -4
c0 -5 -7 -10 -16 -10 -8 0 -12 5 -9 10 3 6 10 10 16 10 5 0 9 -4 9 -10z m1881
-110 c21 0 39 -4 39 -10 0 -5 -18 -10 -40 -10 -22 0 -40 2 -40 4 0 2 -2 10 -3
18 -2 7 -2 10 0 6 3 -5 22 -8 44 -8z m-1881 -130 c0 -5 -5 -10 -11 -10 -5 0
-7 5 -4 10 3 6 8 10 11 10 2 0 4 -4 4 -10z m0 -30 c0 -5 -5 -10 -11 -10 -5 0
-7 5 -4 10 3 6 8 10 11 10 2 0 4 -4 4 -10z m-174 -61 c10 -17 -13 -36 -27 -22
-12 12 -4 33 11 33 5 0 12 -5 16 -11z"/>
<path d="M12320 2770 c0 -22 3 -40 8 -40 4 0 7 18 7 40 0 22 -3 40 -7 40 -5 0
-8 -18 -8 -40z"/>
<path d="M960 2937 c0 -10 8 -17 18 -17 9 0 13 4 7 8 -5 4 -13 11 -17 16 -5 5
-8 2 -8 -7z"/>
<path d="M982 2894 c4 -21 22 -23 26 -1 2 10 -3 17 -13 17 -10 0 -15 -6 -13
-16z"/>
<path d="M1890 2900 c0 -5 5 -10 10 -10 6 0 10 5 10 10 0 6 -4 10 -10 10 -5 0
-10 -4 -10 -10z"/>
<path d="M12080 2900 c0 -5 12 -10 28 -10 21 0 24 2 12 10 -20 13 -40 13 -40
0z"/>
<path d="M1257 2853 c-12 -11 -8 -23 8 -23 8 0 15 7 15 15 0 16 -12 20 -23 8z"/>
<path d="M1402 2841 c2 -7 7 -12 11 -12 12 1 9 15 -3 20 -7 2 -11 -2 -8 -8z"/>
<path d="M2495 2830 c-3 -6 1 -13 10 -16 19 -8 30 0 20 15 -8 14 -22 14 -30 1z"/>
<path d="M2570 2825 c-18 -21 -8 -50 19 -53 20 -3 22 -1 16 15 -4 10 -7 26 -7
36 1 21 -11 22 -28 2z"/>
<path d="M2422 2821 c-10 -6 -7 -10 12 -15 14 -3 26 -11 26 -16 0 -6 21 -9 48
-8 41 1 43 2 11 5 -26 3 -38 10 -42 24 -5 20 -32 25 -55 10z"/>
<path d="M13790 2820 c0 -5 5 -10 10 -10 6 0 10 5 10 10 0 6 -4 10 -10 10 -5
0 -10 -4 -10 -10z"/>
<path d="M5458 2813 c12 -2 32 -2 45 0 12 2 2 4 -23 4 -25 0 -35 -2 -22 -4z"/>
<path d="M13813 2792 c-26 -4 -29 -14 -10 -31 11 -8 18 -6 31 8 19 21 12 29
-21 23z"/>
<path d="M4965 2730 c-3 -5 -1 -10 4 -10 6 0 11 5 11 10 0 6 -2 10 -4 10 -3 0
-8 -4 -11 -10z"/>
<path d="M13948 2643 c7 -3 16 -2 19 1 4 3 -2 6 -13 5 -11 0 -14 -3 -6 -6z"/>
<path d="M14088 2533 c7 -3 16 -2 19 1 4 3 -2 6 -13 5 -11 0 -14 -3 -6 -6z"/>
<path d="M14080 2506 c0 -9 5 -16 10 -16 6 0 10 4 10 9 0 6 -4 13 -10 16 -5 3
-10 -1 -10 -9z"/>
<path d="M11855 2481 c-6 -11 26 -31 49 -31 9 0 16 9 16 20 0 15 -7 20 -29 20
-17 0 -32 -4 -36 -9z"/>
<path d="M3640 1521 c0 -6 5 -13 10 -16 6 -3 10 1 10 9 0 9 -4 16 -10 16 -5 0
-10 -4 -10 -9z"/>
<path d="M4495 1279 c-10 -15 1 -23 20 -15 9 3 13 10 10 16 -8 13 -22 13 -30
-1z"/>
<path d="M4960 1230 c0 -11 5 -20 10 -20 6 0 10 9 10 20 0 11 -4 20 -10 20 -5
0 -10 -9 -10 -20z"/>
<path d="M3235 1140 c-3 -5 -1 -10 4 -10 6 0 11 5 11 10 0 6 -2 10 -4 10 -3 0
-8 -4 -11 -10z"/>
<path d="M3120 1040 c0 -5 5 -10 10 -10 6 0 10 5 10 10 0 6 -4 10 -10 10 -5 0
-10 -4 -10 -10z"/>
<path d="M3160 1040 c0 -5 9 -10 20 -10 11 0 20 5 20 10 0 6 -9 10 -20 10 -11
0 -20 -4 -20 -10z"/>
<path d="M4056 914 c-9 -23 -8 -24 14 -24 13 0 20 7 20 20 0 24 -25 27 -34 4z"/>
<path d="M3280 900 c0 -5 -7 -10 -15 -10 -20 0 -19 -15 2 -51 24 -40 33 -36
33 11 0 25 5 40 13 40 8 0 7 4 -3 10 -19 13 -30 13 -30 0z"/>
<path d="M33 850 c-1 -22 2 -40 8 -40 5 0 9 18 9 40 0 22 -4 40 -8 40 -4 0 -8
-18 -9 -40z"/>
<path d="M4088 873 c7 -3 16 -2 19 1 4 3 -2 6 -13 5 -11 0 -14 -3 -6 -6z"/>
<path d="M4080 844 c0 -8 5 -12 10 -9 6 3 10 10 10 16 0 5 -4 9 -10 9 -5 0
-10 -7 -10 -16z"/>
<path d="M3885 814 c-11 -8 -25 -29 -32 -47 l-11 -32 -2 35 c-1 33 -2 34 -13
12 -8 -18 -8 -28 1 -43 7 -10 12 -25 12 -32 0 -13 68 -52 84 -48 4 1 5 -19 2
-44 -10 -60 15 -62 34 -2 7 23 22 51 31 62 18 20 18 21 -1 32 -10 7 -20 22
-22 34 -5 33 -25 34 -36 2 -9 -25 -11 -22 -11 30 -1 61 -5 65 -36 41z"/>
<path d="M80 795 c0 -20 -46 -30 -65 -15 -13 11 -15 -34 -15 -384 l0 -396 954
0 c738 1 956 4 960 13 3 9 5 9 5 0 1 -8 14 -13 31 -13 25 0 30 4 30 25 0 14 5
25 10 25 6 0 10 7 10 15 0 8 5 15 10 15 16 0 11 30 -6 37 -8 3 -23 -2 -32 -11
-10 -10 -12 -16 -4 -16 7 0 12 -8 12 -19 0 -14 -10 -20 -46 -25 -74 -10 -94
-8 -94 10 0 11 -6 15 -19 11 -24 -6 -51 10 -51 31 0 15 -10 17 -80 15 -63 -1
-80 2 -80 13 0 8 5 14 10 14 6 0 10 7 10 15 0 8 -7 15 -15 15 -18 0 -21 -50
-3 -68 9 -9 4 -12 -25 -12 -27 0 -37 4 -37 16 0 9 9 18 20 21 19 5 28 22 13
24 -50 5 -81 19 -43 19 16 0 21 3 14 10 -6 6 -52 11 -102 12 -82 1 -92 3 -92
19 0 29 -24 113 -34 121 -18 12 -35 -4 -42 -38 -6 -32 -19 -39 -19 -11 0 7
-12 11 -27 9 -15 -1 -29 2 -33 8 -3 5 -17 10 -30 10 -13 0 -27 4 -30 10 -3 5
-15 10 -26 10 -15 0 -19 7 -19 31 0 24 4 30 15 25 9 -3 15 0 15 9 0 19 -51 20
-68 3 -10 -10 -14 -10 -21 0 -4 7 -15 10 -24 6 -14 -5 -15 -2 -4 28 7 18 16
36 22 40 17 13 -4 20 -38 14 -33 -6 -57 -36 -57 -71 0 -29 -16 -14 -19 18 -2
17 -4 41 -5 51 -3 25 -28 34 -98 35 -36 1 -62 6 -72 16 -20 21 -26 19 -26 -7
0 -19 -2 -20 -10 -8 -5 8 -10 25 -10 38 0 13 -6 30 -14 38 -13 12 -15 11 -21
-6 -6 -20 -17 -24 -92 -34 -26 -4 -43 -2 -43 4 0 5 -9 10 -20 10 -21 0 -22 3
-22 80 0 25 -2 35 -5 23 -3 -18 -11 -23 -37 -23 -17 0 -37 5 -44 12 -9 9 -12
9 -12 0 0 -7 -7 -12 -16 -12 -10 0 -14 5 -10 15 3 8 8 21 11 28 3 6 1 18 -4
26 -7 11 -13 9 -30 -8 -26 -26 -37 -26 -51 -1 -6 11 -20 20 -30 20 -11 0 -19
3 -19 8 6 36 -2 44 -41 40 -22 -2 -40 0 -40 4 0 5 -13 8 -30 8 -16 0 -30 5
-30 10 0 6 -4 10 -10 10 -5 0 -10 -7 -10 -15z m0 -75 c0 -12 -8 -12 -35 0 -18
8 -17 9 8 9 15 1 27 -3 27 -9z m788 -242 c-7 -19 -35 -21 -41 -3 -5 11 0 15
19 15 16 0 24 -5 22 -12z m31 -50 c1 -16 -3 -28 -9 -28 -5 0 -10 21 -9 48 0
35 3 42 9 27 5 -11 9 -32 9 -47z m588 -264 c-3 -3 -12 -4 -19 -1 -8 3 -5 6 6
6 11 1 17 -2 13 -5z m256 -101 c-13 -2 -33 -2 -45 0 -13 2 -3 4 22 4 25 0 35
-2 23 -4z"/>
<path d="M3776 771 c-4 -5 -2 -12 3 -15 5 -4 12 -2 15 3 4 5 2 12 -3 15 -5 4
-12 2 -15 -3z"/>
<path d="M400 741 c0 -24 4 -31 20 -31 11 0 20 5 20 10 0 6 -4 10 -10 10 -5 0
-10 6 -10 14 0 8 -4 18 -10 21 -6 4 -10 -7 -10 -24z"/>
<path d="M306 753 c-12 -12 -5 -23 14 -23 11 0 20 4 20 9 0 11 -26 22 -34 14z"/>
<path d="M3760 710 c0 -22 25 -18 34 6 3 9 -1 14 -14 14 -13 0 -20 -7 -20 -20z"/>
<path d="M5455 679 c-10 -15 3 -25 16 -12 7 7 7 13 1 17 -6 3 -14 1 -17 -5z"/>
<path d="M530 611 c0 -38 1 -39 35 -39 34 0 35 1 35 39 0 40 -14 51 -38 27 -9
-9 -12 -9 -12 0 0 7 -4 12 -10 12 -5 0 -10 -18 -10 -39z"/>
<path d="M3552 608 c2 -33 8 -45 26 -53 12 -5 22 -14 22 -19 0 -4 6 -3 14 3
10 9 15 8 20 -4 9 -25 36 -18 36 10 0 16 -6 25 -15 25 -8 0 -15 9 -15 20 0 13
7 20 20 20 13 0 20 7 20 20 0 13 -7 20 -20 20 -13 0 -20 -7 -20 -20 0 -13 -7
-20 -20 -20 -13 0 -20 7 -20 20 0 15 -7 20 -26 20 -23 0 -25 -3 -22 -42z"/>
<path d="M5440 589 c0 -41 3 -49 13 -41 14 12 11 92 -4 92 -5 0 -9 -23 -9 -51z"/>
<path d="M625 580 c-3 -5 -1 -10 4 -10 6 0 11 5 11 10 0 6 -2 10 -4 10 -3 0
-8 -4 -11 -10z"/>
<path d="M780 560 c0 -5 5 -10 10 -10 6 0 10 5 10 10 0 6 -4 10 -10 10 -5 0
-10 -4 -10 -10z"/>
<path d="M5150 559 c0 -5 5 -7 10 -4 6 3 10 8 10 11 0 2 -4 4 -10 4 -5 0 -10
-5 -10 -11z"/>
<path d="M7585 560 c3 -5 8 -10 11 -10 2 0 4 5 4 10 0 6 -5 10 -11 10 -5 0 -7
-4 -4 -10z"/>
<path d="M2608 452 c-23 -3 -27 -8 -27 -35 0 -18 3 -45 7 -62 l6 -30 5 30 c8
38 46 48 56 15 4 -13 12 -19 21 -16 20 8 18 -19 -3 -40 -15 -15 -18 -15 -27
-2 -7 12 -16 8 -48 -24 -23 -23 -38 -47 -38 -62 0 -13 -3 -31 -6 -40 -3 -9 -1
-16 5 -16 6 0 11 17 11 40 0 29 4 40 15 40 11 0 15 -11 15 -39 0 -22 5 -41 11
-43 7 -2 5 -17 -7 -41 -11 -23 -23 -36 -31 -33 -9 4 -13 -5 -13 -27 0 -22 -3
-28 -9 -18 -7 11 -10 9 -16 -8 -9 -29 -19 -26 -38 11 l-16 33 0 -36 c-1 -25 4
-39 15 -43 26 -10 62 -7 67 7 4 10 6 10 6 0 1 -7 8 -13 16 -13 11 0 15 12 15
45 0 26 5 45 11 45 7 0 10 -17 7 -45 l-3 -45 246 0 c135 0 267 3 291 6 l46 6
-43 42 c-23 23 -47 52 -54 64 -14 26 -105 76 -141 78 -14 0 -37 4 -52 9 -19 5
-28 3 -28 -4 0 -6 -7 -11 -15 -11 -8 0 -15 5 -15 10 0 6 7 10 15 10 25 0 17
30 -7 31 -22 1 -22 1 2 8 23 7 22 9 -18 20 -23 7 -40 16 -37 21 4 6 0 10 -8
10 -8 0 -22 16 -32 36 -9 19 -23 38 -31 41 -8 3 -14 10 -14 17 0 11 -45 36
-66 36 -7 0 -14 6 -16 13 -2 7 -14 11 -30 9z m11 -41 c-15 -5 -22 6 -14 19 6
9 10 9 16 -1 5 -8 4 -15 -2 -18z"/>
<path d="M4992 410 c0 -14 2 -19 5 -12 2 6 2 18 0 25 -3 6 -5 1 -5 -13z"/>
<path d="M1182 358 c-17 -17 -15 -25 6 -30 15 -4 18 -1 14 18 -5 28 -4 28 -20
12z"/>
<path d="M5040 290 c0 -5 5 -10 10 -10 6 0 10 5 10 10 0 6 -4 10 -10 10 -5 0
-10 -4 -10 -10z"/>
<path d="M2234 102 c-15 -23 -6 -81 15 -90 20 -10 131 -9 131 1 0 4 0 14 0 23
0 11 -6 15 -20 11 -12 -3 -24 1 -30 11 -8 14 -10 11 -11 -13 -1 -17 -3 -23 -6
-12 -2 9 -8 15 -12 13 -4 -3 -6 10 -5 27 3 46 -39 66 -62 29z m23 -44 c-3 -7
-5 -2 -5 12 0 14 2 19 5 13 2 -7 2 -19 0 -25z"/>
<path d="M2153 73 c-7 -15 -13 -37 -13 -50 0 -21 5 -23 46 -23 25 0 43 4 40 9
-3 5 -14 7 -24 4 -15 -3 -20 4 -28 42 l-9 45 -12 -27z"/>
<path d="M3282 70 c0 -14 2 -19 5 -12 2 6 2 18 0 25 -3 6 -5 1 -5 -13z"/>
<path d="M4980 78 c0 -17 20 -47 20 -31 0 6 3 18 6 27 4 11 1 16 -10 16 -9 0
-16 -6 -16 -12z"/>
<path d="M2437 43 c-14 -13 -6 -33 13 -33 22 0 23 1 14 24 -7 17 -16 20 -27 9z"/>
<path d="M3330 20 c0 -5 5 -10 10 -10 6 0 10 5 10 10 0 6 -4 10 -10 10 -5 0
-10 -4 -10 -10z"/>
<path d="M3360 20 c0 -5 7 -10 16 -10 8 0 12 5 9 10 -3 6 -10 10 -16 10 -5 0
-9 -4 -9 -10z"/>
<path d="M2080 12 c0 -4 12 -8 28 -9 23 -1 24 -1 7 7 -26 11 -35 12 -35 2z"/>
</g>
</svg>
